# xmcd
#
# Track frame offsets: 
#        200
#        11462
#        23910
#        37790
#        54752
#        70167
#        82622
#        92375
#        104897
#        120432
#        135687
#        149837
#
# Disc length: 2186 seconds
#
# Revision: 1
# Processed by: cddbd v1.5.2PL0 Copyright (c) Steve Scherf et al.
# Submitted via: ExactAudioCopyFreeDBPlugin 1.0
#
DISCID=9008880c
DTITLE=Anson Funderburgh and The Rockets - Talk To You By Hand
DYEAR=1981
DGENRE=Blues
TTITLE0=Tore Up
TTITLE1=Come On
TTITLE2=Talk To You By Hand
TTITLE3=I Found A New Love
TTITLE4=How Long?
TTITLE5=That Will Never Do
TTITLE6=Nobody But You
TTITLE7=This Should Go On Forever
TTITLE8=Walking Dr. Bill
TTITLE9=All My Love In Vain
TTITLE10=I Was Fooled
TTITLE11=Red Hot Mama
EXTD=
EXTT0=
EXTT1=
EXTT2=
EXTT3=
EXTT4=
EXTT5=
EXTT6=
EXTT7=
EXTT8=
EXTT9=
EXTT10=
EXTT11=
PLAYORDER=
